<svg width="127" height="168" viewBox="0 0 127 168" fill="none" xmlns="http://www.w3.org/2000/svg">
<path d="M105.873 94.57C104.163 97.59 102.133 100.43 99.8326 103.04L99.8926 103.1L97.7526 105.25C88.2327 114.83 75.5426 120.11 62.0326 120.11C48.5226 120.11 35.9327 114.87 26.4127 105.36C16.9027 95.85 11.6627 83.2 11.6627 69.75C11.6627 68.76 11.6926 67.75 11.7526 66.75C11.7526 66.61 11.7627 66.47 11.7727 66.33V66.29C11.7727 66.2 11.7926 66.11 11.7926 66.01V65.96C11.8126 65.75 11.8327 65.54 11.8427 65.34C11.8627 65.17 11.8726 64.99 11.8926 64.81C11.9226 64.54 11.9426 64.27 11.9726 64C11.9926 63.84 12.0126 63.6701 12.0326 63.4901C12.0526 63.2701 12.0927 63.02 12.1227 62.77C12.1427 62.63 12.1626 62.5 12.1826 62.36C12.2126 62.13 12.2526 61.88 12.2926 61.63C12.3126 61.5 12.3426 61.35 12.3626 61.2C12.3826 61.08 12.4026 60.95 12.4326 60.83C12.4626 60.67 12.4927 60.48 12.5227 60.31C12.5527 60.15 12.5827 59.98 12.6227 59.81C12.6627 59.61 12.7027 59.42 12.7427 59.22C13.0327 57.85 13.3826 56.4701 13.7926 55.1201V55.08C13.8526 54.9 13.9126 54.73 13.9726 54.55C14.0226 54.4 14.0626 54.25 14.1227 54.09C14.4026 53.21 14.7227 52.32 15.0627 51.46C15.1127 51.34 15.1526 51.21 15.2126 51.09C15.2626 50.96 15.3226 50.8201 15.3727 50.6801C15.4426 50.5101 15.5127 50.33 15.5927 50.15C15.6527 50.01 15.7126 49.86 15.7826 49.7L15.8127 49.63C15.9027 49.42 15.9927 49.21 16.0927 49C16.1627 48.85 16.2327 48.69 16.3027 48.54C17.5727 45.8 19.1126 43.15 20.8727 40.66L21.1526 40.27C21.3526 39.99 21.5526 39.72 21.7526 39.46C21.8526 39.34 21.9527 39.2 22.0527 39.07C22.2726 38.79 22.4926 38.5 22.7226 38.22C22.8526 38.06 22.9827 37.89 23.1227 37.73C23.2427 37.58 23.3827 37.42 23.5227 37.25C23.6527 37.09 23.7926 36.93 23.9326 36.77C24.0826 36.59 24.2426 36.41 24.4026 36.23L18.4927 30.31C8.68265 41.12 3.29265 55.07 3.29265 69.73C3.29265 85.42 9.40265 100.16 20.4927 111.25C31.5827 122.34 46.3327 128.45 62.0127 128.45C77.6927 128.45 92.5326 122.31 103.623 111.15C106.793 107.97 109.583 104.44 111.943 100.65L105.843 94.55L105.873 94.57Z" fill="#ffffff"/>
<path d="M30.7226 101.06C39.0826 109.42 50.2126 114.03 62.0426 114.03C62.4126 114.03 62.7826 114.03 63.1526 114.01C63.3326 114.01 63.5126 114.01 63.7026 113.99H63.7326C64.0026 113.98 64.2726 113.97 64.5526 113.95C64.7726 113.94 64.9826 113.93 65.2026 113.91C65.3126 113.91 65.4126 113.89 65.5026 113.89H65.6526C65.8526 113.86 66.0526 113.84 66.2526 113.82C66.4326 113.81 66.6026 113.79 66.7726 113.77C66.8926 113.76 67.0026 113.75 67.1026 113.73L67.3226 113.71C67.4726 113.69 67.6126 113.67 67.7626 113.65C68.3126 113.58 68.8526 113.5 69.3726 113.42C69.5226 113.4 69.6626 113.37 69.8126 113.34H69.8626C69.9826 113.31 70.0926 113.29 70.2126 113.27H70.2726C70.4226 113.23 70.5726 113.2 70.7226 113.17C71.1226 113.09 71.5126 113.01 71.9026 112.92C72.1626 112.86 72.4226 112.8 72.6826 112.74H72.7126C72.7826 112.72 72.8426 112.7 72.9126 112.68C73.1026 112.63 73.2826 112.59 73.4526 112.54C73.6026 112.5 73.7426 112.46 73.8826 112.42C74.0026 112.39 74.1126 112.36 74.2226 112.33C74.3226 112.3 74.4026 112.28 74.4826 112.25L74.5426 112.23C74.6526 112.2 74.7626 112.17 74.8726 112.13C75.0526 112.08 75.2126 112.03 75.3726 111.98C75.5026 111.94 75.6126 111.9 75.7326 111.87C76.1026 111.75 76.4726 111.62 76.8426 111.49C76.9426 111.45 77.0426 111.42 77.1326 111.38L77.2026 111.36C77.3326 111.31 77.4526 111.27 77.5626 111.23C77.7426 111.16 77.9126 111.1 78.0726 111.04C78.2126 110.99 78.3326 110.94 78.4526 110.89C78.6826 110.8 78.8826 110.72 79.0926 110.63L79.7126 110.37C79.9026 110.29 80.0926 110.21 80.2726 110.12C80.3826 110.07 80.4726 110.03 80.5626 109.99L80.6526 109.95C80.8027 109.88 80.9526 109.81 81.1026 109.73C82.0326 109.29 82.9526 108.81 83.8426 108.31C83.9426 108.26 84.0326 108.2 84.1226 108.15C84.3326 108.03 84.5326 107.91 84.7326 107.79L85.7426 107.17C86.1926 106.89 86.6526 106.58 87.1526 106.24C87.2926 106.14 87.4326 106.05 87.5626 105.95L87.6226 105.91C87.7226 105.84 87.8326 105.76 87.9326 105.69L87.9626 105.67C88.0426 105.62 88.1126 105.56 88.1826 105.51L88.2126 105.49C88.3426 105.4 88.4626 105.31 88.5926 105.21C88.7326 105.1 88.8726 105 89.0026 104.9C89.0926 104.83 89.1726 104.76 89.2526 104.7L89.3426 104.63C89.4826 104.52 89.6227 104.41 89.7626 104.3C89.9127 104.18 90.0426 104.07 90.1826 103.95L90.2226 103.92C90.4926 103.7 90.7526 103.48 91.0126 103.25C91.0927 103.18 91.1726 103.11 91.2526 103.04L85.3326 97.1201C78.8526 102.65 70.6326 105.67 62.0526 105.67C42.2426 105.67 26.1226 89.55 26.1226 69.7401C26.1226 60.0901 29.9026 51.02 36.7526 44.23C39.9726 41.04 43.8226 38.4501 47.9826 36.6801L41.7026 30.4C37.7026 32.48 34.0426 35.14 30.8226 38.34C22.3926 46.72 17.7526 57.87 17.7526 69.75C17.7526 81.63 22.3626 92.7 30.7226 101.07V101.06Z" fill="#ffffff"/>
<path d="M112.283 58.72C112.283 43.04 106.173 28.29 95.0827 17.2C83.9927 6.11001 69.2427 0 53.5627 0C37.8827 0 23.0427 6.14005 11.9527 17.3C8.78266 20.48 5.99265 24.01 3.64265 27.8L9.74266 33.9C11.4527 30.88 13.4827 28.0401 15.7827 25.4301L15.7227 25.3701L17.8627 23.22C27.3827 13.63 40.0727 8.36005 53.5827 8.36005C67.0927 8.36005 79.6827 13.6 89.1927 23.11C98.7027 32.62 103.943 45.27 103.943 58.72C103.943 59.72 103.913 60.73 103.853 61.72C103.853 61.85 103.833 62 103.833 62.14C103.833 62.24 103.813 62.34 103.813 62.45V62.5C103.793 62.71 103.773 62.9201 103.763 63.1201C103.743 63.2901 103.733 63.48 103.713 63.66C103.683 63.92 103.663 64.2 103.633 64.47C103.613 64.63 103.593 64.8 103.573 64.98C103.553 65.2 103.513 65.45 103.483 65.7C103.463 65.84 103.443 65.97 103.423 66.11C103.393 66.34 103.353 66.59 103.313 66.84C103.293 66.97 103.263 67.12 103.243 67.27C103.223 67.39 103.203 67.52 103.173 67.64C103.153 67.8 103.113 67.99 103.083 68.16C103.053 68.32 103.023 68.49 102.983 68.66C102.943 68.85 102.903 69.05 102.863 69.25C102.573 70.62 102.223 72.01 101.813 73.35C101.753 73.54 101.703 73.73 101.633 73.92C101.583 74.07 101.543 74.22 101.483 74.38C101.193 75.26 100.883 76.15 100.543 77.01C100.493 77.13 100.453 77.25 100.403 77.38C100.353 77.52 100.293 77.65 100.233 77.79C100.163 77.96 100.083 78.14 100.013 78.32C99.9527 78.46 99.8927 78.61 99.8227 78.77L99.7927 78.84C99.7027 79.05 99.6127 79.26 99.5127 79.46C99.4427 79.61 99.3727 79.77 99.3027 79.92C98.0327 82.66 96.4927 85.3101 94.7327 87.8L94.4527 88.19C94.2527 88.47 94.0527 88.74 93.8527 89C93.7527 89.13 93.6527 89.26 93.5527 89.39C93.3327 89.67 93.1127 89.9601 92.8827 90.2401C92.7527 90.4001 92.6227 90.57 92.4827 90.73C92.3626 90.87 92.2427 91.0201 92.1127 91.1801L92.0927 91.21C91.9527 91.37 91.8127 91.53 91.6727 91.69C91.5227 91.87 91.3627 92.05 91.2027 92.23L97.1127 98.15C106.923 87.34 112.313 73.39 112.313 58.72H112.283Z" fill="#ffffff"/>
<path d="M67.6226 91.79L73.9027 98.07C77.9027 95.99 81.5626 93.33 84.7826 90.13C93.2126 81.75 97.8527 70.6 97.8527 58.72C97.8527 46.84 93.2427 35.77 84.8827 27.41C76.5227 19.05 65.3926 14.44 53.5626 14.44C53.1926 14.44 52.8226 14.44 52.4526 14.46C52.2726 14.46 52.0827 14.46 51.9027 14.48H51.8726C51.6026 14.49 51.3327 14.5 51.0527 14.52C50.8327 14.53 50.6227 14.54 50.4027 14.56C50.2927 14.56 50.1927 14.58 50.1027 14.58H49.9526C49.7626 14.61 49.5527 14.63 49.3527 14.64C49.1727 14.66 49.0026 14.67 48.8326 14.69C48.7126 14.7 48.6027 14.71 48.4927 14.73L48.3227 14.75C48.3227 14.75 48.2827 14.75 48.2627 14.75C48.1127 14.77 47.9826 14.78 47.8326 14.8C47.2826 14.87 46.7426 14.95 46.2226 15.04C46.0726 15.06 45.9326 15.0901 45.7826 15.1201H45.7326C45.6126 15.1501 45.5127 15.17 45.4027 15.19H45.3326C45.1826 15.23 45.0426 15.26 44.8926 15.29C44.4826 15.37 44.0926 15.45 43.7026 15.54C43.4426 15.6 43.1827 15.66 42.9227 15.72H42.8926C42.8226 15.74 42.7626 15.76 42.6926 15.77C42.5026 15.82 42.3226 15.86 42.1526 15.91C42.0026 15.95 41.8626 15.99 41.7226 16.03C41.6026 16.06 41.4927 16.0901 41.3827 16.1201C41.2827 16.1501 41.2027 16.17 41.1227 16.2L41.0627 16.22C40.9527 16.25 40.8427 16.28 40.7327 16.32C40.5527 16.37 40.3927 16.42 40.2327 16.47C40.1027 16.51 39.9927 16.55 39.8727 16.58C39.5027 16.7 39.1326 16.83 38.7626 16.96C38.6626 16.99 38.5727 17.03 38.4827 17.06L38.3926 17.09C38.2726 17.14 38.1626 17.17 38.0426 17.22C37.8526 17.29 37.6927 17.35 37.5227 17.42C37.3827 17.47 37.2726 17.52 37.1426 17.57C36.9126 17.66 36.7126 17.74 36.5026 17.83L35.8827 18.09C35.6927 18.17 35.5026 18.25 35.3226 18.34C35.2126 18.39 35.1226 18.43 35.0326 18.47L34.9426 18.51C34.7927 18.58 34.6427 18.65 34.4927 18.73C33.5627 19.17 32.6426 19.65 31.7526 20.15C31.6526 20.2 31.5626 20.26 31.4726 20.31C31.2826 20.42 31.0826 20.53 30.8926 20.65L30.2526 21.04C30.1226 21.12 29.9827 21.21 29.8427 21.29C29.3927 21.57 28.9326 21.88 28.4326 22.22C28.3026 22.31 28.1827 22.4 28.0527 22.48L27.9726 22.54C27.8526 22.62 27.7526 22.69 27.6526 22.77L27.6126 22.8C27.5426 22.85 27.4726 22.9 27.4026 22.95L27.3727 22.97C27.2427 23.06 27.1227 23.15 26.9927 23.25C26.8527 23.36 26.7126 23.46 26.5826 23.56C26.4826 23.63 26.4026 23.7 26.3326 23.76L26.2327 23.84C26.0927 23.95 25.9527 24.06 25.8127 24.17C25.6527 24.29 25.5027 24.42 25.3527 24.55C25.0827 24.77 24.8227 24.99 24.5627 25.22C24.4827 25.29 24.4026 25.3601 24.3226 25.4301L30.2427 31.35C36.7227 25.82 44.9427 22.79 53.5227 22.79C73.3326 22.79 89.4526 38.91 89.4526 58.72C89.4526 68.38 85.6727 77.4401 78.8227 84.2401C75.6027 87.4301 71.7526 90.02 67.5926 91.79H67.6226Z" fill="#ffffff"/>
<path d="M0.848512 164.827L0.86532 160.284L2.98631 160.292L2.98527 160.572L1.18628 160.566L1.18017 162.218L2.80416 162.224L2.80315 162.497L1.17916 162.491L1.1716 164.535L3.04058 164.542L3.0395 164.836L0.848512 164.827ZM4.32798 164.84L4.34489 160.269L4.49889 160.27L7.46818 163.711C7.57506 163.833 7.67261 163.954 7.76083 164.076C7.85373 164.193 7.90251 164.254 7.90716 164.259C7.89824 164.146 7.89438 163.927 7.89559 163.6L7.90776 160.31L8.22976 160.312L8.21285 164.883L8.05885 164.882L5.03377 161.385L4.65051 160.914C4.65949 161.008 4.66335 161.227 4.66207 161.572L4.64998 164.841L4.32798 164.84ZM9.89431 164.343L9.9092 160.318L10.2242 160.319L10.2101 164.141C10.2087 164.519 10.1491 164.852 10.0314 165.141C9.91362 165.43 9.77746 165.654 9.62287 165.812C9.46829 165.97 9.26934 166.135 9.02604 166.307L8.87982 166.096C9.55363 165.609 9.89179 165.024 9.89431 164.343ZM13.8562 164.946C13.2075 164.943 12.6647 164.715 12.2277 164.261C11.7907 163.806 11.5734 163.252 11.5759 162.599C11.5783 161.941 11.7997 161.387 12.24 160.936C12.6804 160.484 13.2249 160.26 13.8735 160.263C14.5222 160.265 15.065 160.493 15.502 160.948C15.939 161.402 16.1563 161.958 16.1538 162.616C16.1514 163.269 15.93 163.822 15.4897 164.273C15.0493 164.724 14.5048 164.948 13.8562 164.946ZM13.8725 160.55C13.3125 160.547 12.8451 160.744 12.4703 161.139C12.1001 161.535 11.914 162.022 11.9119 162.6C11.9097 163.174 12.0923 163.66 12.4595 164.058C12.8313 164.452 13.2973 164.649 13.8573 164.652C14.4219 164.654 14.8893 164.459 15.2594 164.069C15.6296 163.673 15.8157 163.189 15.8178 162.615C15.82 162.036 15.6374 161.548 15.2702 161.15C14.903 160.752 14.4371 160.552 13.8725 160.55ZM18.7132 164.894L18.3982 164.892L18.4042 163.268L16.7 160.343L17.085 160.344L18.3997 162.603C18.5016 162.809 18.5595 162.919 18.5735 162.933C18.6017 162.872 18.6604 162.765 18.7497 162.612L20.081 160.356L20.445 160.357L18.7192 163.284L18.7132 164.894ZM23.8718 164.913L23.8886 160.37L24.2106 160.371L24.1949 164.62L26.2809 164.627L26.2798 164.921L23.8718 164.913ZM27.235 164.925L27.2519 160.382L27.5739 160.383L27.557 164.926L27.235 164.925ZM30.171 160.589C29.919 160.588 29.7135 160.648 29.5544 160.769C29.3953 160.889 29.3153 161.059 29.3145 161.279C29.3136 161.531 29.4177 161.757 29.627 161.959C29.7758 162.104 29.9665 162.259 30.1993 162.423C30.4367 162.583 30.5996 162.697 30.688 162.768C30.7764 162.838 30.8834 162.934 31.0089 163.056C31.2367 163.285 31.3501 163.55 31.349 163.848C31.3476 164.236 31.2158 164.529 30.9537 164.729C30.6963 164.924 30.3343 165.02 29.8677 165.019C29.4057 165.017 29.0188 164.894 28.707 164.65L28.8759 164.406C29.1924 164.622 29.528 164.731 29.8827 164.732C30.2374 164.733 30.513 164.659 30.7095 164.511C30.9108 164.362 31.0119 164.153 31.0129 163.882C31.0137 163.649 30.9142 163.434 30.7142 163.237C30.5748 163.096 30.3863 162.944 30.1489 162.78C29.9162 162.616 29.7533 162.498 29.6602 162.428C29.5672 162.353 29.4579 162.255 29.3323 162.133C29.0952 161.894 28.9772 161.618 28.9784 161.305C28.9795 160.993 29.0901 160.748 29.3101 160.572C29.5348 160.395 29.8431 160.308 30.2351 160.309C30.6271 160.311 30.9791 160.389 31.2912 160.544L31.1713 160.803C30.8824 160.661 30.549 160.59 30.171 160.589ZM33.4631 160.692L31.9232 160.686L31.9242 160.399L35.3192 160.412L35.3181 160.699L33.7781 160.693L33.7624 164.949L33.4474 164.948L33.4631 160.692ZM36.2516 164.958L36.2684 160.415L38.3894 160.423L38.3883 160.703L36.5894 160.697L36.5832 162.349L38.2072 162.355L38.2062 162.628L36.5822 162.622L36.5747 164.666L38.4437 164.672L38.4426 164.966L36.2516 164.958ZM39.7311 164.971L39.748 160.4L39.902 160.401L42.8713 163.842C42.9781 163.964 43.0757 164.085 43.1639 164.207C43.2568 164.324 43.3056 164.385 43.3102 164.39C43.3013 164.277 43.2975 164.058 43.2987 163.731L43.3108 160.441L43.6328 160.443L43.6159 165.014L43.4619 165.013L40.4368 161.516L40.0536 161.045C40.0626 161.139 40.0664 161.358 40.0652 161.703L40.0531 164.972L39.7311 164.971ZM45.2955 164.992L45.3123 160.449L45.6343 160.45L45.6175 164.993L45.2955 164.992ZM47.2984 164.999L47.3153 160.428L47.4693 160.429L50.4386 163.87C50.5455 163.992 50.643 164.113 50.7312 164.235C50.8241 164.352 50.8729 164.413 50.8776 164.417C50.8686 164.305 50.8648 164.086 50.866 163.759L50.8782 160.469L51.2002 160.471L51.1833 165.042L51.0293 165.041L48.0042 161.544L47.6209 161.073C47.6299 161.167 47.6338 161.386 47.6325 161.731L47.6204 165L47.2984 164.999ZM54.7758 160.701C54.2578 160.699 53.8207 160.896 53.4646 161.291C53.1132 161.682 52.9364 162.164 52.9342 162.738C52.9321 163.312 53.1287 163.8 53.5238 164.203C53.919 164.601 54.385 164.801 54.9216 164.803C55.4629 164.805 55.8832 164.744 56.1823 164.619L56.1892 162.75L56.5112 162.751L56.5038 164.767C56.1389 164.99 55.6229 165.1 54.9555 165.098C54.2882 165.095 53.7267 164.867 53.2711 164.412C52.8154 163.958 52.5888 163.402 52.5912 162.744C52.5937 162.081 52.8011 161.527 53.2134 161.08C53.6304 160.634 54.1655 160.412 54.8189 160.414C55.3462 160.416 55.8615 160.5 56.3649 160.665L56.28 160.93C55.7952 160.779 55.2938 160.703 54.7758 160.701ZM61.3809 160.795L59.8409 160.79L59.842 160.503L63.237 160.515L63.2359 160.802L61.6959 160.796L61.6802 165.052L61.3652 165.051L61.3809 160.795ZM66.0209 165.139C65.3722 165.136 64.8294 164.908 64.3924 164.453C63.9554 163.999 63.7381 163.445 63.7405 162.792C63.743 162.134 63.9644 161.58 64.4047 161.129C64.845 160.677 65.3895 160.453 66.0382 160.456C66.6869 160.458 67.2297 160.686 67.6667 161.141C68.1037 161.595 68.3209 162.151 68.3185 162.809C68.3161 163.462 68.0947 164.015 67.6544 164.466C67.214 164.917 66.6695 165.141 66.0209 165.139ZM66.0371 160.743C65.4771 160.74 65.0097 160.937 64.6349 161.332C64.2648 161.728 64.0787 162.215 64.0765 162.793C64.0744 163.367 64.2569 163.853 64.6241 164.251C64.996 164.645 65.462 164.842 66.022 164.845C66.5866 164.847 67.054 164.652 67.4241 164.262C67.7943 163.866 67.9804 163.382 67.9825 162.808C67.9846 162.229 67.8021 161.741 67.4349 161.343C67.0677 160.945 66.6018 160.745 66.0371 160.743ZM74.3436 164.861L74.1546 164.861L72.8435 161.643C72.7879 161.517 72.7325 161.369 72.6771 161.201C72.6771 161.206 72.6723 161.231 72.6628 161.278C72.658 161.325 72.6508 161.388 72.6411 161.467C72.6315 161.542 72.622 161.605 72.6124 161.656L72.0747 165.091L71.7597 165.09L72.5186 160.522L72.7076 160.522L74.1092 163.88C74.2202 164.161 74.2756 164.308 74.2756 164.322C74.3086 164.224 74.3721 164.08 74.4662 163.889L76.0536 160.535L76.2426 160.535L76.9187 165.109L76.5827 165.108L76.0985 161.655C76.0666 161.426 76.0509 161.274 76.0511 161.2L75.8464 161.661L74.3436 164.861ZM81.3571 164.656C81.0478 165.014 80.5781 165.192 79.9481 165.19C79.3182 165.188 78.8498 165.006 78.5432 164.646C78.2365 164.285 78.0843 163.788 78.0867 163.153L78.0962 160.57L78.4182 160.571L78.4087 163.154C78.4044 164.316 78.9179 164.899 79.9492 164.903C80.9805 164.907 81.4983 164.328 81.5026 163.166L81.5122 160.583L81.8342 160.584L81.8246 163.167C81.8223 163.802 81.6665 164.298 81.3571 164.656ZM84.3865 160.789C84.1345 160.789 83.9289 160.848 83.7698 160.969C83.6107 161.09 83.5307 161.26 83.5299 161.479C83.529 161.731 83.6332 161.958 83.8424 162.159C83.9912 162.305 84.182 162.459 84.4147 162.624C84.6521 162.783 84.815 162.898 84.9034 162.968C84.9918 163.039 85.0988 163.135 85.2244 163.257C85.4522 163.486 85.5655 163.75 85.5644 164.049C85.563 164.436 85.4313 164.73 85.1692 164.929C84.9118 165.124 84.5498 165.221 84.0831 165.219C83.6211 165.218 83.2342 165.095 82.9225 164.851L83.0914 164.607C83.4079 164.823 83.7435 164.931 84.0982 164.932C84.4528 164.934 84.7284 164.86 84.925 164.711C85.1262 164.563 85.2273 164.353 85.2283 164.083C85.2292 163.849 85.1296 163.634 84.9297 163.437C84.7902 163.297 84.6018 163.145 84.3644 162.98C84.1317 162.816 83.9688 162.699 83.8757 162.629C83.7826 162.554 83.6733 162.455 83.5478 162.333C83.3107 162.094 83.1927 161.819 83.1938 161.506C83.195 161.193 83.3056 160.949 83.5255 160.772C83.7502 160.596 84.0585 160.508 84.4505 160.51C84.8425 160.511 85.1946 160.589 85.5067 160.745L85.3867 161.003C85.0979 160.862 84.7645 160.791 84.3865 160.789ZM86.8509 165.146L86.8677 160.603L87.1897 160.604L87.1728 165.147L86.8509 165.146ZM92.3896 164.942C92.0388 165.137 91.5508 165.233 90.9255 165.231C90.3048 165.228 89.7573 165.002 89.283 164.553C88.8133 164.103 88.5797 163.547 88.5822 162.884C88.5846 162.217 88.792 161.66 89.2043 161.213C89.6213 160.767 90.1565 160.545 90.8098 160.547C91.3372 160.549 91.8525 160.633 92.3559 160.798L92.2709 161.064C91.7861 160.912 91.2848 160.836 90.7668 160.834C90.2488 160.832 89.8117 161.029 89.4556 161.424C89.1041 161.815 88.9273 162.297 88.9252 162.871C88.9231 163.441 89.1243 163.927 89.5288 164.329C89.938 164.732 90.4109 164.935 90.9476 164.937C91.4842 164.939 91.9302 164.866 92.2854 164.718L92.3896 164.942ZM97.2179 164.078L98.5393 160.737L98.7422 160.738L99.8708 164.109L100.037 164.676C100.051 164.588 100.11 164.401 100.214 164.117L101.389 160.656L101.725 160.658L100.126 165.223L99.9367 165.222C99.1656 162.984 98.7662 161.82 98.7386 161.732C98.697 161.605 98.6555 161.482 98.6139 161.36C98.5903 161.439 98.5267 161.605 98.4231 161.856L97.0877 165.211L96.8987 165.211L95.3196 160.634L95.6766 160.635L96.819 164.048C96.8836 164.235 96.9435 164.443 96.9987 164.672C97.0224 164.579 97.0954 164.381 97.2179 164.078ZM102.635 165.204L102.652 160.661L102.974 160.662L102.957 165.205L102.635 165.204ZM105.466 160.958L103.926 160.953L103.927 160.666L107.322 160.678L107.321 160.965L105.781 160.96L105.765 165.216L105.45 165.214L105.466 160.958ZM111.733 165.238L111.741 162.942L108.585 162.93L108.576 165.226L108.254 165.225L108.271 160.682L108.593 160.683L108.586 162.643L111.743 162.655L111.75 160.695L112.072 160.696L112.055 165.239L111.733 165.238ZM119.495 164.797C119.185 165.156 118.716 165.333 118.086 165.331C117.456 165.329 116.987 165.147 116.681 164.787C116.374 164.426 116.222 163.929 116.224 163.294L116.234 160.711L116.556 160.712L116.546 163.295C116.542 164.457 117.055 165.04 118.087 165.044C119.118 165.048 119.636 164.469 119.64 163.307L119.65 160.724L119.972 160.725L119.962 163.308C119.96 163.943 119.804 164.439 119.495 164.797ZM122.524 160.931C122.272 160.93 122.066 160.99 121.907 161.11C121.748 161.231 121.668 161.401 121.667 161.62C121.666 161.872 121.771 162.099 121.98 162.301C122.129 162.446 122.319 162.6 122.552 162.765C122.79 162.924 122.952 163.039 123.041 163.109C123.129 163.18 123.236 163.276 123.362 163.398C123.59 163.627 123.703 163.891 123.702 164.19C123.7 164.577 123.569 164.871 123.307 165.07C123.049 165.266 122.687 165.362 122.221 165.36C121.759 165.359 121.372 165.236 121.06 164.992L121.229 164.748C121.545 164.964 121.881 165.072 122.236 165.074C122.59 165.075 122.866 165.001 123.062 164.853C123.264 164.704 123.365 164.494 123.366 164.224C123.367 163.99 123.267 163.775 123.067 163.579C122.928 163.438 122.739 163.286 122.502 163.121C122.269 162.957 122.106 162.84 122.013 162.77C121.92 162.695 121.811 162.596 121.685 162.474C121.448 162.236 121.33 161.96 121.331 161.647C121.332 161.334 121.443 161.09 121.663 160.913C121.888 160.737 122.196 160.649 122.588 160.651C122.98 160.652 123.332 160.731 123.644 160.886L123.524 161.144C123.235 161.003 122.902 160.932 122.524 160.931Z" fill="#ffffff"/>
<path d="M11.3826 153.12C10.6146 153.12 9.90664 152.992 9.25864 152.736C8.61864 152.472 8.11864 152.112 7.75864 151.656C7.69464 151.576 7.66264 151.492 7.66264 151.404C7.66264 151.292 7.72264 151.184 7.84264 151.08C7.90664 151.032 7.97464 151.008 8.04664 151.008C8.19064 151.008 8.31864 151.076 8.43064 151.212C8.75864 151.572 9.17064 151.852 9.66664 152.052C10.1706 152.244 10.7426 152.34 11.3826 152.34C12.0866 152.34 12.6306 152.212 13.0146 151.956C13.3986 151.692 13.5906 151.32 13.5906 150.84C13.5906 150.424 13.4026 150.088 13.0266 149.832C12.6586 149.576 12.0306 149.348 11.1426 149.148C9.98264 148.892 9.14664 148.572 8.63464 148.188C8.13064 147.796 7.87864 147.28 7.87864 146.64C7.87864 145.976 8.15864 145.452 8.71864 145.068C9.28664 144.676 10.0506 144.48 11.0106 144.48C11.7386 144.48 12.3946 144.608 12.9786 144.864C13.5706 145.12 13.9906 145.464 14.2386 145.896C14.2866 145.976 14.3106 146.052 14.3106 146.124C14.3106 146.252 14.2426 146.364 14.1066 146.46C14.0506 146.492 13.9866 146.508 13.9146 146.508C13.7386 146.508 13.6026 146.44 13.5066 146.304C13.2746 145.968 12.9466 145.712 12.5226 145.536C12.0986 145.352 11.5946 145.26 11.0106 145.26C9.53064 145.26 8.79064 145.72 8.79064 146.64C8.79064 146.92 8.86664 147.156 9.01864 147.348C9.17064 147.532 9.41464 147.7 9.75064 147.852C10.0946 147.996 10.5706 148.14 11.1786 148.284C12.3626 148.564 13.2146 148.904 13.7346 149.304C14.2546 149.696 14.5146 150.208 14.5146 150.84C14.5146 151.544 14.2306 152.1 13.6626 152.508C13.1026 152.916 12.3426 153.12 11.3826 153.12ZM16.4306 156.588C16.2946 156.588 16.1866 156.544 16.1066 156.456C16.0346 156.376 15.9986 156.26 15.9986 156.108V147.48C15.9986 147.328 16.0346 147.212 16.1066 147.132C16.1866 147.044 16.2946 147 16.4306 147C16.5746 147 16.6826 147.044 16.7546 147.132C16.8346 147.22 16.8746 147.336 16.8746 147.48V148.248C17.4906 147.416 18.3786 147 19.5386 147C20.5066 147 21.2666 147.268 21.8186 147.804C22.3786 148.34 22.6586 149.076 22.6586 150.012C22.6586 150.644 22.5306 151.196 22.2746 151.668C22.0186 152.132 21.6506 152.492 21.1706 152.748C20.6986 152.996 20.1426 153.12 19.5026 153.12C18.9506 153.12 18.4626 153.024 18.0386 152.832C17.6226 152.632 17.2386 152.32 16.8866 151.896V156.108C16.8866 156.252 16.8466 156.368 16.7666 156.456C16.6866 156.544 16.5746 156.588 16.4306 156.588ZM19.4426 152.364C20.1706 152.364 20.7386 152.156 21.1466 151.74C21.5626 151.316 21.7706 150.732 21.7706 149.988C21.7706 149.268 21.5666 148.716 21.1586 148.332C20.7586 147.948 20.1826 147.756 19.4306 147.756C18.6386 147.756 18.0146 147.96 17.5586 148.368C17.1026 148.768 16.8746 149.316 16.8746 150.012C16.8746 150.476 16.9786 150.888 17.1866 151.248C17.4026 151.6 17.7026 151.876 18.0866 152.076C18.4786 152.268 18.9306 152.364 19.4426 152.364ZM26.9322 153.12C26.2362 153.12 25.6402 152.98 25.1442 152.7C24.6482 152.42 24.2722 152.048 24.0162 151.584C23.7682 151.112 23.6442 150.604 23.6442 150.06C23.6442 149.516 23.7682 149.012 24.0162 148.548C24.2722 148.076 24.6482 147.7 25.1442 147.42C25.6402 147.14 26.2362 147 26.9322 147C27.6282 147 28.2202 147.14 28.7082 147.42C29.2042 147.7 29.5762 148.076 29.8242 148.548C30.0802 149.012 30.2082 149.516 30.2082 150.06C30.2082 150.604 30.0802 151.112 29.8242 151.584C29.5762 152.048 29.2042 152.42 28.7082 152.7C28.2202 152.98 27.6282 153.12 26.9322 153.12ZM26.9322 152.364C27.6522 152.364 28.2282 152.16 28.6602 151.752C29.1002 151.344 29.3202 150.78 29.3202 150.06C29.3202 149.34 29.1002 148.776 28.6602 148.368C28.2282 147.96 27.6522 147.756 26.9322 147.756C26.2042 147.756 25.6202 147.96 25.1802 148.368C24.7482 148.776 24.5322 149.34 24.5322 150.06C24.5322 150.78 24.7482 151.344 25.1802 151.752C25.6202 152.16 26.2042 152.364 26.9322 152.364ZM35.2881 151.812C35.3761 151.884 35.4201 151.968 35.4201 152.064C35.4201 152.144 35.3841 152.24 35.3121 152.352C35.1441 152.584 34.9121 152.772 34.6161 152.916C34.3201 153.052 34.0161 153.12 33.7041 153.12C33.1761 153.12 32.7601 152.964 32.4561 152.652C32.1521 152.34 32.0001 151.912 32.0001 151.368V147.852H31.3521C31.0321 147.852 30.8721 147.728 30.8721 147.48C30.8721 147.368 30.9121 147.28 30.9921 147.216C31.0801 147.152 31.2001 147.12 31.3521 147.12H32.0001V145.068C32.0001 144.916 32.0361 144.8 32.1081 144.72C32.1881 144.632 32.3001 144.588 32.4441 144.588C32.5801 144.588 32.6841 144.632 32.7561 144.72C32.8361 144.8 32.8761 144.916 32.8761 145.068V147.12H34.5081C34.6521 147.12 34.7641 147.152 34.8441 147.216C34.9321 147.272 34.9761 147.36 34.9761 147.48C34.9761 147.728 34.8201 147.852 34.5081 147.852H32.8761V151.44C32.8761 152.056 33.1641 152.364 33.7401 152.364C33.9241 152.364 34.0921 152.328 34.2441 152.256C34.3961 152.184 34.5481 152.068 34.7001 151.908C34.8201 151.78 34.9361 151.716 35.0481 151.716C35.1201 151.716 35.2001 151.748 35.2881 151.812ZM37.3539 145.728C37.1779 145.728 37.0259 145.672 36.8979 145.56C36.7779 145.44 36.7179 145.296 36.7179 145.128C36.7179 144.96 36.7779 144.816 36.8979 144.696C37.0259 144.576 37.1779 144.516 37.3539 144.516C37.5299 144.516 37.6819 144.58 37.8099 144.708C37.9459 144.828 38.0139 144.968 38.0139 145.128C38.0139 145.288 37.9459 145.428 37.8099 145.548C37.6819 145.668 37.5299 145.728 37.3539 145.728ZM37.3539 153.12C37.2179 153.12 37.1099 153.08 37.0299 153C36.9579 152.912 36.9219 152.792 36.9219 152.64V147.48C36.9219 147.328 36.9579 147.212 37.0299 147.132C37.1099 147.044 37.2179 147 37.3539 147C37.4979 147 37.6059 147.044 37.6779 147.132C37.7579 147.212 37.7979 147.328 37.7979 147.48V152.64C37.7979 152.792 37.7579 152.912 37.6779 153C37.6059 153.08 37.4979 153.12 37.3539 153.12ZM43.6899 144.672C43.7699 144.744 43.8099 144.832 43.8099 144.936C43.8099 145.04 43.7659 145.136 43.6779 145.224C43.5979 145.288 43.5219 145.32 43.4499 145.32C43.3459 145.32 43.2059 145.268 43.0299 145.164C42.7419 144.996 42.4339 144.912 42.1059 144.912C41.5139 144.912 41.2179 145.232 41.2179 145.872V147.12H42.9219C43.2339 147.12 43.3899 147.244 43.3899 147.492C43.3899 147.604 43.3499 147.692 43.2699 147.756C43.1899 147.82 43.0739 147.852 42.9219 147.852H41.2179V152.64C41.2179 152.792 41.1779 152.912 41.0979 153C41.0259 153.08 40.9219 153.12 40.7859 153.12C40.6499 153.12 40.5419 153.08 40.4619 153C40.3819 152.912 40.3419 152.792 40.3419 152.64V147.852H39.7659C39.6139 147.852 39.4939 147.82 39.4059 147.756C39.3259 147.692 39.2859 147.604 39.2859 147.492C39.2859 147.244 39.4459 147.12 39.7659 147.12H40.3419V145.92C40.3419 145.384 40.4979 144.956 40.8099 144.636C41.1299 144.308 41.5499 144.144 42.0699 144.144C42.3979 144.144 42.7019 144.192 42.9819 144.288C43.2619 144.376 43.4979 144.504 43.6899 144.672ZM46.9877 156C46.3957 156 45.8677 155.912 45.4037 155.736C44.9397 155.56 44.5997 155.32 44.3837 155.016C44.3277 154.936 44.2997 154.856 44.2997 154.776C44.2997 154.648 44.3637 154.536 44.4917 154.44C44.5397 154.4 44.6117 154.38 44.7077 154.38C44.8437 154.38 44.9717 154.444 45.0917 154.572C45.2677 154.78 45.5237 154.944 45.8597 155.064C46.2037 155.192 46.5677 155.256 46.9517 155.256C47.6717 155.256 48.2397 155.04 48.6557 154.608C49.0797 154.176 49.2917 153.592 49.2917 152.856V152.04C49.0437 152.368 48.7277 152.62 48.3437 152.796C47.9597 152.964 47.5357 153.048 47.0717 153.048C46.0957 153.048 45.3317 152.772 44.7797 152.22C44.2357 151.66 43.9637 150.884 43.9637 149.892V147.444C43.9637 147.324 44.0077 147.224 44.0957 147.144C44.1837 147.056 44.2917 147.012 44.4197 147.012C44.5477 147.012 44.6517 147.056 44.7317 147.144C44.8197 147.224 44.8637 147.324 44.8637 147.444V149.892C44.8637 150.66 45.0557 151.26 45.4397 151.692C45.8317 152.116 46.3757 152.328 47.0717 152.328C47.7597 152.328 48.2917 152.124 48.6677 151.716C49.0437 151.308 49.2317 150.728 49.2317 149.976V147.564C49.2317 147.388 49.2717 147.252 49.3517 147.156C49.4397 147.052 49.5597 147 49.7117 147C49.8557 147 49.9677 147.052 50.0477 147.156C50.1357 147.252 50.1797 147.388 50.1797 147.564V152.796C50.1797 153.428 50.0437 153.984 49.7717 154.464C49.5077 154.952 49.1357 155.328 48.6557 155.592C48.1757 155.864 47.6197 156 46.9877 156ZM55.5263 153.12C55.3903 153.12 55.2823 153.08 55.2023 153C55.1223 152.912 55.0823 152.792 55.0823 152.64V147.948C55.0823 146.86 55.3863 146.012 55.9943 145.404C56.6103 144.788 57.4623 144.48 58.5503 144.48C59.6303 144.48 60.4783 144.788 61.0943 145.404C61.7103 146.02 62.0183 146.868 62.0183 147.948V152.64C62.0183 152.792 61.9783 152.912 61.8983 153C61.8183 153.08 61.7063 153.12 61.5623 153.12C61.4263 153.12 61.3143 153.08 61.2263 153C61.1463 152.912 61.1063 152.792 61.1063 152.64V149.94H55.9823V152.64C55.9823 152.792 55.9423 152.912 55.8623 153C55.7823 153.08 55.6703 153.12 55.5263 153.12ZM61.1063 149.196V147.912C61.1063 147.056 60.8863 146.4 60.4463 145.944C60.0063 145.48 59.3743 145.248 58.5503 145.248C57.7183 145.248 57.0823 145.476 56.6423 145.932C56.2023 146.388 55.9823 147.048 55.9823 147.912V149.196H61.1063ZM66.6328 153.12C65.6408 153.12 64.8568 152.852 64.2808 152.316C63.7128 151.772 63.4288 151.032 63.4288 150.096C63.4288 149.504 63.5528 148.976 63.8008 148.512C64.0568 148.04 64.4248 147.672 64.9048 147.408C65.3928 147.136 65.9768 147 66.6568 147C67.2328 147 67.7208 147.108 68.1208 147.324C68.5288 147.54 68.8888 147.84 69.2008 148.224L69.2128 144.372C69.2128 144.22 69.2488 144.104 69.3208 144.024C69.4008 143.936 69.5128 143.892 69.6568 143.892C69.7928 143.892 69.8968 143.936 69.9688 144.024C70.0488 144.104 70.0888 144.22 70.0888 144.372V152.64C70.0888 152.792 70.0488 152.912 69.9688 153C69.8968 153.08 69.7928 153.12 69.6568 153.12C69.5208 153.12 69.4128 153.08 69.3328 153C69.2528 152.912 69.2128 152.792 69.2128 152.64V151.872C68.9328 152.28 68.5728 152.592 68.1328 152.808C67.7008 153.016 67.2008 153.12 66.6328 153.12ZM66.7048 152.364C67.4808 152.364 68.0928 152.16 68.5408 151.752C68.9888 151.336 69.2128 150.772 69.2128 150.06C69.2128 149.588 69.0968 149.18 68.8648 148.836C68.6408 148.484 68.3368 148.216 67.9528 148.032C67.5768 147.848 67.1648 147.756 66.7168 147.756C65.9648 147.756 65.3768 147.972 64.9528 148.404C64.5288 148.828 64.3168 149.392 64.3168 150.096C64.3168 150.848 64.5248 151.416 64.9408 151.8C65.3568 152.176 65.9448 152.364 66.7048 152.364ZM72.1767 153.12C72.0407 153.12 71.9327 153.08 71.8527 153C71.7807 152.912 71.7447 152.792 71.7447 152.64V144.372C71.7447 144.22 71.7807 144.104 71.8527 144.024C71.9327 143.936 72.0407 143.892 72.1767 143.892C72.3127 143.892 72.4207 143.936 72.5007 144.024C72.5807 144.104 72.6207 144.22 72.6207 144.372L72.6327 148.224C73.3047 147.408 74.1647 147 75.2127 147C75.8607 147 76.4247 147.124 76.9047 147.372C77.3847 147.62 77.7527 147.976 78.0087 148.44C78.2727 148.896 78.4047 149.436 78.4047 150.06C78.4047 151.036 78.1247 151.792 77.5647 152.328C77.0047 152.856 76.2167 153.12 75.2007 153.12C74.0727 153.12 73.2127 152.704 72.6207 151.872V152.64C72.6207 152.784 72.5807 152.9 72.5007 152.988C72.4287 153.076 72.3207 153.12 72.1767 153.12ZM75.1407 152.364C75.9247 152.364 76.5167 152.172 76.9167 151.788C77.3167 151.396 77.5167 150.82 77.5167 150.06C77.5167 149.34 77.3047 148.776 76.8807 148.368C76.4567 147.96 75.8767 147.756 75.1407 147.756C74.6607 147.756 74.2287 147.856 73.8447 148.056C73.4607 148.248 73.1607 148.52 72.9447 148.872C72.7287 149.224 72.6207 149.62 72.6207 150.06C72.6207 150.772 72.8447 151.336 73.2927 151.752C73.7407 152.16 74.3567 152.364 75.1407 152.364ZM80.4446 153.12C80.3086 153.12 80.2006 153.08 80.1206 153C80.0486 152.912 80.0126 152.792 80.0126 152.64V144.372C80.0126 144.22 80.0486 144.104 80.1206 144.024C80.2006 143.936 80.3086 143.892 80.4446 143.892C80.5806 143.892 80.6886 143.936 80.7686 144.024C80.8486 144.104 80.8886 144.22 80.8886 144.372V152.64C80.8886 152.784 80.8486 152.9 80.7686 152.988C80.6966 153.076 80.5886 153.12 80.4446 153.12ZM85.8072 153.12C85.1112 153.12 84.5152 152.98 84.0192 152.7C83.5232 152.42 83.1472 152.048 82.8912 151.584C82.6432 151.112 82.5192 150.604 82.5192 150.06C82.5192 149.516 82.6432 149.012 82.8912 148.548C83.1472 148.076 83.5232 147.7 84.0192 147.42C84.5152 147.14 85.1112 147 85.8072 147C86.5032 147 87.0952 147.14 87.5832 147.42C88.0792 147.7 88.4512 148.076 88.6992 148.548C88.9552 149.012 89.0832 149.516 89.0832 150.06C89.0832 150.604 88.9552 151.112 88.6992 151.584C88.4512 152.048 88.0792 152.42 87.5832 152.7C87.0952 152.98 86.5032 153.12 85.8072 153.12ZM85.8072 152.364C86.5272 152.364 87.1032 152.16 87.5352 151.752C87.9752 151.344 88.1952 150.78 88.1952 150.06C88.1952 149.34 87.9752 148.776 87.5352 148.368C87.1032 147.96 86.5272 147.756 85.8072 147.756C85.0792 147.756 84.4952 147.96 84.0552 148.368C83.6232 148.776 83.4072 149.34 83.4072 150.06C83.4072 150.78 83.6232 151.344 84.0552 151.752C84.4952 152.16 85.0792 152.364 85.8072 152.364ZM93.3758 153.12C92.7358 153.12 92.1718 152.996 91.6838 152.748C91.1958 152.492 90.8198 152.132 90.5558 151.668C90.2918 151.204 90.1598 150.664 90.1598 150.048C90.1598 149.44 90.2918 148.908 90.5558 148.452C90.8198 147.988 91.1958 147.632 91.6838 147.384C92.1718 147.128 92.7358 147 93.3758 147C93.9758 147 94.4958 147.084 94.9358 147.252C95.3758 147.42 95.7238 147.668 95.9798 147.996C96.0438 148.084 96.0758 148.168 96.0758 148.248C96.0758 148.368 96.0158 148.476 95.8958 148.572C95.8398 148.62 95.7678 148.644 95.6798 148.644C95.5438 148.644 95.4158 148.584 95.2958 148.464C94.8718 147.992 94.2318 147.756 93.3758 147.756C92.6318 147.756 92.0558 147.956 91.6478 148.356C91.2478 148.748 91.0478 149.312 91.0478 150.048C91.0478 150.776 91.2518 151.344 91.6598 151.752C92.0678 152.16 92.6398 152.364 93.3758 152.364C93.7838 152.364 94.1598 152.304 94.5038 152.184C94.8478 152.056 95.1318 151.876 95.3558 151.644C95.4918 151.508 95.6198 151.44 95.7398 151.44C95.8118 151.44 95.8918 151.472 95.9798 151.536C96.0918 151.632 96.1478 151.736 96.1478 151.848C96.1478 151.952 96.1038 152.04 96.0158 152.112C95.6238 152.464 95.2158 152.72 94.7918 152.88C94.3678 153.04 93.8958 153.12 93.3758 153.12ZM97.9825 153.12C97.8465 153.12 97.7385 153.08 97.6585 153C97.5865 152.912 97.5505 152.792 97.5505 152.64V144.372C97.5505 144.22 97.5865 144.104 97.6585 144.024C97.7385 143.936 97.8465 143.892 97.9825 143.892C98.1185 143.892 98.2265 143.936 98.3065 144.024C98.3865 144.104 98.4265 144.22 98.4265 144.372V149.748L102.411 147.06C102.491 147.004 102.575 146.976 102.663 146.976C102.799 146.976 102.899 147.032 102.963 147.144C103.003 147.2 103.023 147.276 103.023 147.372C103.023 147.516 102.959 147.628 102.831 147.708L100.683 149.136C101.379 149.608 101.919 150.128 102.303 150.696C102.687 151.256 102.951 151.908 103.095 152.652C103.119 152.78 103.095 152.892 103.023 152.988C102.951 153.076 102.847 153.12 102.711 153.12C102.447 153.12 102.291 153.008 102.243 152.784C102.075 152.016 101.827 151.408 101.499 150.96C101.179 150.504 100.671 150.052 99.9745 149.604L98.4265 150.648V152.64C98.4265 152.784 98.3865 152.9 98.3065 152.988C98.2345 153.076 98.1265 153.12 97.9825 153.12ZM107.134 153.12C106.094 153.12 105.29 152.852 104.722 152.316C104.154 151.78 103.87 151.02 103.87 150.036C103.87 149.092 104.158 148.352 104.734 147.816C105.31 147.272 106.098 147 107.098 147C107.714 147 108.262 147.1 108.742 147.3C109.222 147.492 109.594 147.768 109.858 148.128C110.13 148.48 110.266 148.884 110.266 149.34C110.266 149.676 110.17 149.936 109.978 150.12C109.794 150.304 109.538 150.396 109.21 150.396H104.77C104.77 151.012 104.978 151.496 105.394 151.848C105.81 152.192 106.39 152.364 107.134 152.364C107.59 152.364 107.982 152.316 108.31 152.22C108.638 152.116 108.946 151.952 109.234 151.728C109.386 151.6 109.51 151.536 109.606 151.536C109.678 151.536 109.746 151.568 109.81 151.632C109.922 151.728 109.978 151.828 109.978 151.932C109.978 152.012 109.93 152.1 109.834 152.196C109.506 152.508 109.122 152.74 108.682 152.892C108.242 153.044 107.726 153.12 107.134 153.12ZM108.946 149.688C109.09 149.688 109.198 149.66 109.27 149.604C109.342 149.54 109.378 149.428 109.378 149.268C109.378 148.98 109.282 148.72 109.09 148.488C108.898 148.256 108.626 148.076 108.274 147.948C107.93 147.82 107.538 147.756 107.098 147.756C106.386 147.756 105.822 147.932 105.406 148.284C104.998 148.628 104.794 149.096 104.794 149.688H108.946ZM112.068 153.12C111.932 153.12 111.824 153.08 111.744 153C111.672 152.912 111.636 152.792 111.636 152.64V147.48C111.636 147.328 111.672 147.212 111.744 147.132C111.816 147.044 111.924 147 112.068 147C112.204 147 112.308 147.044 112.38 147.132C112.46 147.212 112.5 147.328 112.5 147.48V148.2C113.044 147.48 113.796 147.12 114.756 147.12H115.056C115.208 147.12 115.328 147.156 115.416 147.228C115.504 147.292 115.548 147.384 115.548 147.504C115.548 147.624 115.504 147.716 115.416 147.78C115.328 147.844 115.208 147.876 115.056 147.876H114.72C114.04 147.876 113.5 148.072 113.1 148.464C112.708 148.848 112.512 149.372 112.512 150.036V152.64C112.512 152.784 112.472 152.9 112.392 152.988C112.32 153.076 112.212 153.12 112.068 153.12Z" fill="white"/>
</svg>
